<?xml version="1.0" standalone="no"?><!DOCTYPE svg PUBLIC "-//W3C//DTD SVG 1.1//EN" "http://www.w3.org/Graphics/SVG/1.1/DTD/svg11.dtd"><svg t="1493215831914" class="icon" style="" viewBox="0 0 1024 1024" version="1.1" xmlns="http://www.w3.org/2000/svg" p-id="2387" xmlns:xlink="http://www.w3.org/1999/xlink" width="200" height="200"><defs><style type="text/css"></style></defs><path d="M255.863389 479.764831l511.684822 0 0 63.960731-511.684822 0 0-63.960731Z" p-id="2388" fill="#cc3333"></path><path d="M479.725946 255.903298l63.960731 0 0 511.684822-63.960731 0 0-511.684822Z" p-id="2389" fill="#cc3333"></path><path d="M832.865845 64.021106 190.545754 64.021106c-69.9 0-126.564557 56.664557-126.564557 126.564557l0 642.320091c0 69.9 56.664557 126.564557 126.564557 126.564557l642.320091 0c69.9 0 126.564557-56.664557 126.564557-126.564557L959.430402 190.585663C959.430402 120.685663 902.765845 64.021106 832.865845 64.021106zM895.469672 818.790268c0 42.371016-34.348296 76.719312-76.719312 76.719312L204.66124 895.509581c-42.371016 0-76.719312-34.348296-76.719312-76.719312L127.941927 204.700125c0-42.371016 34.348296-76.719312 76.719312-76.719312l614.08912 0c42.371016 0 76.719312 34.348296 76.719312 76.719312L895.469672 818.790268z" p-id="2390" fill="#cc3333"></path></svg>