<?xml version="1.0" standalone="no"?><!DOCTYPE svg PUBLIC "-//W3C//DTD SVG 1.1//EN" "http://www.w3.org/Graphics/SVG/1.1/DTD/svg11.dtd"><svg t="1492929225436" class="icon" style="" viewBox="0 0 1024 1024" version="1.1" xmlns="http://www.w3.org/2000/svg" p-id="7639" xmlns:xlink="http://www.w3.org/1999/xlink" width="200" height="200"><defs><style type="text/css"></style></defs><path d="M660.711152 380.805478a20.408082 20.408082 0 0 1-14.444974-5.963108c-8.015998-7.978114-8.046715-20.943574-0.0686-28.959573l139.353864-140.016318c7.980162-8.017022 20.945622-8.044667 28.959573-0.0686 8.015998 7.978114 8.046715 20.943574 0.0686 28.959572l-139.353864 140.016318a20.416273 20.416273 0 0 1-14.514599 6.031709z" fill="#cc3333" p-id="7640"></path><path d="M216.974611 826.724943a20.418321 20.418321 0 0 1-14.437807-5.954917c-8.020094-7.974019-8.057978-20.939479-0.083959-28.959573L346.651735 646.770954c7.974019-8.022142 20.939479-8.059001 28.959573-0.084983 8.020094 7.974019 8.057978 20.939479 0.083958 28.959573L231.496376 820.684019a20.414226 20.414226 0 0 1-14.521765 6.040924z" fill="#cc3333" p-id="7641"></path><path d="M512.267234 957.670661c-60.416401 0-119.036908-11.838162-174.231494-35.182748-53.302446-22.545955-101.169085-54.815749-142.268866-95.916553-41.100805-41.100805-73.371622-88.96642-95.916553-142.267842-23.345609-55.19561-35.182748-113.816117-35.182748-174.232518 0-60.416401 11.838162-119.036908 35.182748-174.232518 22.544931-53.302446 54.815749-101.169085 95.916553-142.268866 41.099781-41.099781 88.96642-73.370598 142.268866-95.915529 55.194586-23.346633 113.815093-35.183771 174.231494-35.183772s119.036908 11.837138 174.232518 35.182748c53.30347 22.544931 101.169085 54.815749 142.268866 95.915529 41.100805 41.100805 73.370598 88.96642 95.916553 142.268866 23.345609 55.19561 35.182748 113.816117 35.182748 174.232518 0 60.416401-11.838162 119.036908-35.182748 174.232518-22.545955 53.302446-54.815749 101.168061-95.916553 142.267842s-88.96642 73.370598-142.268866 95.916553c-55.19561 23.346633-113.816117 35.183771-174.232518 35.183772z m0-854.244933c-224.224743 0-406.644248 182.420529-406.644248 406.645272S288.042491 916.715248 512.267234 916.715248c224.224743 0 406.645272-182.419505 406.645272-406.644248S736.491977 103.425728 512.267234 103.425728z" fill="#cc3333" p-id="7642"></path><path d="M511.585326 604.221351c-51.915082 0-94.150351-42.23527-94.150351-94.150351s42.23527-94.151375 94.150351-94.151375c51.915082 0 94.150351 42.23527 94.150352 94.151375s-42.23527 94.150351-94.150352 94.150351z m0-147.345289c-29.331243 0-53.194938 23.863695-53.194938 53.195962 0 29.331243 23.863695 53.194938 53.194938 53.194938s53.194938-23.863695 53.194939-53.194938c0-29.333291-23.863695-53.195962-53.194939-53.195962z" fill="#cc3333" p-id="7643"></path><path d="M511.585326 690.408946c-99.438719 0-180.337946-80.899227-180.337946-180.337946s80.899227-180.337946 180.337946-180.337946 180.337946 80.899227 180.337947 180.337946c0 32.090614-8.541251 63.608876-24.70021 91.147296-15.671589 26.707025-38.08751 49.075848-64.828323 64.68805-9.765818 5.702017-22.306366 2.408178-28.008383-7.359687s-2.408178-22.306366 7.359687-28.008383c42.698066-24.92956 69.222839-71.090406 69.222839-120.467276 0-76.855904-62.526629-139.382533-139.382533-139.382533s-139.382533 62.526629-139.382533 139.382533S434.730446 649.453533 511.58635 649.453533c11.309837 0 20.477706 9.167869 20.477707 20.477707s-9.168893 20.477706-20.478731 20.477706z" fill="#cc3333" p-id="7644"></path><path d="M511.585326 690.408946v-40.955413c2.652887 0 5.334443-0.074744 7.9689-0.224231l2.301694 40.891932a184.330075 184.330075 0 0 1-10.270594 0.287712z" fill="#cc3333" p-id="7645"></path></svg>