<?xml version="1.0" standalone="no"?><!DOCTYPE svg PUBLIC "-//W3C//DTD SVG 1.1//EN" "http://www.w3.org/Graphics/SVG/1.1/DTD/svg11.dtd"><svg t="1493521576747" class="icon" style="" viewBox="0 0 1024 1024" version="1.1" xmlns="http://www.w3.org/2000/svg" p-id="1815" xmlns:xlink="http://www.w3.org/1999/xlink" width="200" height="200"><defs><style type="text/css"></style></defs><path d="M1024 902.07744c0 67.21024-54.68672 121.89696-121.89696 121.89696L121.89696 1023.9744C54.68672 1023.9744 0 969.28768 0 902.07744L0 121.92256C0 54.71232 54.68672 0.0256 121.89696 0.0256l780.20096 0C969.31328 0.0256 1024 54.71232 1024 121.92256c0 13.4656-10.9056 24.38144-24.38144 24.38144-13.47584 0-24.38144-10.91584-24.38144-24.38144 0-40.33024-32.80896-73.1392-73.1392-73.1392L121.89696 48.78336c-40.33024 0-73.1392 32.80896-73.1392 73.1392l0 780.15488c0 40.33024 32.80896 73.1392 73.1392 73.1392l780.20096 0c40.33024 0 73.1392-32.80896 73.1392-73.1392 0-13.4656 10.9056-24.38144 24.38144-24.38144C1013.0944 877.696 1024 888.61184 1024 902.07744zM1016.84224 494.7456L834.8672 312.77056c-9.5232-9.5232-24.94976-9.5232-34.47296 0s-9.5232 24.94976 0 34.47296l140.37504 140.37504L399.57504 487.61856c-13.47584 0-24.38144 10.91584-24.38144 24.38144s10.9056 24.38144 24.38144 24.38144l541.18912 0-140.37504 140.3648c-9.5232 9.5232-9.5232 24.94976 0 34.47296 4.7616 4.7616 10.99776 7.1424 17.23904 7.1424s12.47744-2.3808 17.23904-7.1424l181.97504-181.9648c2.23744-2.23744 4.02944-4.90496 5.26848-7.87456 1.2288-2.944 1.88928-6.12864 1.88928-9.37984s-0.66048-6.43584-1.88928-9.37984C1020.87168 499.65568 1019.07968 496.98304 1016.84224 494.7456z" p-id="1816" fill="#cc3333"></path></svg>