<?xml version="1.0" standalone="no"?><!DOCTYPE svg PUBLIC "-//W3C//DTD SVG 1.1//EN" "http://www.w3.org/Graphics/SVG/1.1/DTD/svg11.dtd"><svg t="1493216280412" class="icon" style="" viewBox="0 0 1024 1024" version="1.1" xmlns="http://www.w3.org/2000/svg" p-id="2391" xmlns:xlink="http://www.w3.org/1999/xlink" width="200" height="200"><defs><style type="text/css"></style></defs><path d="M108.6 173.2m-41.3 0a41.3 41.3 0 1 0 82.6 0 41.3 41.3 0 1 0-82.6 0Z" p-id="2392" fill="#cc3333"></path><path d="M956.6 180.7H234.5c-4.1 0-7.5-3.4-7.5-7.5s3.4-7.5 7.5-7.5h722.2c4.1 0 7.5 3.4 7.5 7.5s-3.4 7.5-7.6 7.5z" p-id="2393" fill="#cc3333"></path><path d="M108.6 504.3m-41.3 0a41.3 41.3 0 1 0 82.6 0 41.3 41.3 0 1 0-82.6 0Z" p-id="2394" fill="#cc3333"></path><path d="M956.6 511.8H234.5c-4.1 0-7.5-3.4-7.5-7.5s3.4-7.5 7.5-7.5h722.2c4.1 0 7.5 3.4 7.5 7.5s-3.4 7.5-7.6 7.5z" p-id="2395" fill="#cc3333"></path><path d="M108.6 850.8m-41.3 0a41.3 41.3 0 1 0 82.6 0 41.3 41.3 0 1 0-82.6 0Z" p-id="2396" fill="#cc3333"></path><path d="M956.6 858.3H234.5c-4.1 0-7.5-3.4-7.5-7.5s3.4-7.5 7.5-7.5h722.2c4.1 0 7.5 3.4 7.5 7.5s-3.4 7.5-7.6 7.5z" p-id="2397" fill="#cc3333"></path></svg>