<?xml version="1.0" standalone="no"?><!DOCTYPE svg PUBLIC "-//W3C//DTD SVG 1.1//EN" "http://www.w3.org/Graphics/SVG/1.1/DTD/svg11.dtd"><svg t="1492926830954" class="icon" style="" viewBox="0 0 1024 1024" version="1.1" xmlns="http://www.w3.org/2000/svg" p-id="6076" xmlns:xlink="http://www.w3.org/1999/xlink" width="200" height="200"><defs><style type="text/css"></style></defs><path d="M883.2 44.8c-12.8 0-32 6.4-38.4 12.8L211.2 448c-12.8 12.8-25.6 25.6-25.6 44.8V25.6c0-12.8-12.8-25.6-32-25.6-12.8 0-25.6 12.8-25.6 25.6v966.4c0 19.2 12.8 32 25.6 32s25.6-12.8 25.6-25.6V531.2c0 19.2 12.8 32 25.6 38.4l633.6 396.8c12.8 6.4 25.6 12.8 44.8 12.8 38.4 0 76.8-32 76.8-70.4V115.2c0-38.4-38.4-70.4-76.8-70.4z m19.2 864c0 12.8-19.2 19.2-25.6 12.8l-640-396.8c-6.4-6.4-6.4-12.8-6.4-12.8s0-6.4 6.4-12.8l633.6-396.8h12.8c6.4 0 19.2 6.4 19.2 12.8v793.6z" p-id="6077" fill="#cc3333"></path></svg>