<?xml version="1.0" standalone="no"?><!DOCTYPE svg PUBLIC "-//W3C//DTD SVG 1.1//EN" "http://www.w3.org/Graphics/SVG/1.1/DTD/svg11.dtd"><svg t="1493279053973" class="icon" style="" viewBox="0 0 1024 1024" version="1.1" xmlns="http://www.w3.org/2000/svg" p-id="2370" xmlns:xlink="http://www.w3.org/1999/xlink" width="200" height="200"><defs><style type="text/css"></style></defs><path d="M966.747042 921.104515l-7.724938 7.724938c-8.532327 8.53335-22.367427 8.53335-30.899754 0L700.247408 700.95349c-65.796542 59.182914-152.820548 95.226828-248.284783 95.226828-205.140147 0-371.439684-166.298514-371.439684-371.439684s166.298514-371.439684 371.439684-371.439684 371.439684 166.298514 371.439684 371.439684c0 90.011037-32.029484 172.533518-85.296665 236.820684l228.64242 228.64242C975.280392 898.739135 975.280392 912.573211 966.747042 921.104515zM768.778224 424.741657c0-174.97308-141.842519-316.815599-316.815599-316.815599s-316.815599 141.842519-316.815599 316.815599 141.842519 316.815599 316.815599 316.815599S768.778224 599.714737 768.778224 424.741657zM419.188174 231.046167c-82.296331 13.83817-147.19748 78.659501-161.036673 160.922063 0 0-0.577145 1.327228-1.461281 4.855588-3.667529 14.631232-13.600763 27.918863-28.684296 27.918863s-25.556049-10.477632-25.556049-25.562189c0-4.991688 1.279133-8.698103 2.02103-15.385409 16.59598-100.80794 92.935646-181.304276 191.662181-203.741287 5.796006-1.608637 13.253862-3.068895 19.931958-2.163269 15.093766 2.046612 24.746614 14.043854 24.647353 25.120121C439.34526 227.776703 419.188174 231.046167 419.188174 231.046167z" p-id="2371" fill="#cc3333"></path></svg>