<?xml version="1.0" standalone="no"?><!DOCTYPE svg PUBLIC "-//W3C//DTD SVG 1.1//EN" "http://www.w3.org/Graphics/SVG/1.1/DTD/svg11.dtd"><svg t="1492926805874" class="icon" style="" viewBox="0 0 1024 1024" version="1.1" xmlns="http://www.w3.org/2000/svg" p-id="4271" xmlns:xlink="http://www.w3.org/1999/xlink" width="200" height="200"><defs><style type="text/css"></style></defs><path d="M934.4 0c-12.8 0-25.6 12.8-25.6 25.6v460.8c0-19.2-12.8-32-25.6-38.4L249.6 51.2C236.8 44.8 217.6 44.8 204.8 44.8 166.4 44.8 128 76.8 128 115.2v793.6c0 38.4 38.4 70.4 76.8 70.4 12.8 0 32-6.4 44.8-12.8L876.8 576c12.8-6.4 25.6-25.6 25.6-38.4v460.8c0 12.8 12.8 25.6 25.6 25.6s25.6-12.8 25.6-25.6V25.6c6.4-12.8-6.4-25.6-19.2-25.6z m-83.2 524.8l-633.6 396.8c-6.4 6.4-25.6 0-25.6-12.8V115.2c0-6.4 12.8-12.8 19.2-12.8h12.8l633.6 396.8V512s0 6.4-6.4 12.8z" p-id="4272" fill="#cc3333"></path></svg>