<?xml version="1.0" standalone="no"?><!DOCTYPE svg PUBLIC "-//W3C//DTD SVG 1.1//EN" "http://www.w3.org/Graphics/SVG/1.1/DTD/svg11.dtd"><svg t="1492926606588" class="icon" style="" viewBox="0 0 1024 1024" version="1.1" xmlns="http://www.w3.org/2000/svg" p-id="1429" xmlns:xlink="http://www.w3.org/1999/xlink" width="200" height="200"><defs><style type="text/css"></style></defs><path d="M335.936 909.411c0 60.469-49.021 109.491-109.491 109.491l0 0c-60.47 0-109.491-49.022-109.491-109.491L116.954 114.589c0-60.47 49.021-109.491 109.491-109.491l0 0c60.47 0 109.491 49.021 109.491 109.491L335.936 909.411zM907.046 909.411c0 60.469-49.022 109.491-109.491 109.491l0 0c-60.469 0-109.491-49.022-109.491-109.491L688.064 114.589c0-60.47 49.022-109.491 109.491-109.491l0 0c60.469 0 109.491 49.021 109.491 109.491L907.046 909.411z" p-id="1430" fill="#cc3333"></path></svg>