<?xml version="1.0" standalone="no"?><!DOCTYPE svg PUBLIC "-//W3C//DTD SVG 1.1//EN" "http://www.w3.org/Graphics/SVG/1.1/DTD/svg11.dtd"><svg t="1493522121278" class="icon" style="" viewBox="0 0 1024 1024" version="1.1" xmlns="http://www.w3.org/2000/svg" p-id="3360" xmlns:xlink="http://www.w3.org/1999/xlink" width="200" height="200"><defs><style type="text/css"></style></defs><path d="M519.042905 501.93169c64.028269 0 124.225279-24.933879 169.500439-70.209038 45.274136-45.275159 70.208015-105.471147 70.208015-169.500439 0-64.028269-24.933879-124.225279-70.208015-169.500438-45.275159-45.275159-105.471147-70.209038-169.500439-70.209039-64.029292 0-124.225279 24.933879-169.500439 70.209039s-70.209038 105.471147-70.209038 169.500438c0 64.029292 24.933879 124.225279 70.209038 169.500439s105.471147 70.209038 169.500439 70.209038z m0-438.486706c109.605304 0 198.776206 89.170902 198.776206 198.777229s-89.170902 198.777229-198.776206 198.777229c-109.606327 0-198.777229-89.171925-198.777229-198.777229-0.001023-109.606327 89.170902-198.777229 198.777229-198.777229zM950.749184 856.546174c-4.134157-10.517541-16.011672-15.696494-26.53433-11.56029-10.519588 4.134157-15.69547 16.013719-11.56029 26.534329 13.931291 35.444257 23.431665 73.890894 28.236088 114.272603 1.238201 10.402931 10.07445 18.050098 20.297279 18.050099 0.806365 0 1.622964-0.048095 2.443655-0.14531 11.224646-1.336438 19.241226-11.517311 17.905812-22.741957-5.217838-43.852764-15.576767-85.710081-30.788214-124.409474zM696.906825 628.934223c3.697205-10.68127-1.963725-22.337751-12.643971-26.034957-48.880267-16.922415-101.341083-26.287713-155.923212-27.836998a576.043618 576.043618 0 0 0-16.206101-0.230244c-119.702266 0-225.865167 36.990472-307.011302 106.974383-83.571371 72.076572-135.609561 175.396729-150.487409 298.793131-1.352811 11.221576 6.647397 21.415752 17.868972 22.768562 0.831948 0.100284 1.657756 0.149403 2.475378 0.149403 10.209526 0 19.040658-7.628748 20.294209-18.018375 27.496238-228.060159 187.227172-369.733832 416.859129-369.733833 5.010107 0 10.070356 0.071631 15.041578 0.213871 50.414203 1.429559 98.760305 10.04375 143.69675 25.601075 10.68127 3.694135 22.338774-1.964748 26.035979-12.646018zM983.287251 555.263339c-7.993045-7.993045-20.952194-7.990998-28.944216 0L671.125649 838.481749c-7.993045 7.993045-7.992021 20.952194 0 28.944216 3.996011 3.996011 9.234315 5.993504 14.472619 5.993505s10.475586-1.998517 14.47262-5.993505L983.287251 584.208579c7.990998-7.993045 7.990998-20.952194 0-28.94524z" p-id="3361" fill="#cc3333"></path></svg>