<?xml version="1.0" standalone="no"?><!DOCTYPE svg PUBLIC "-//W3C//DTD SVG 1.1//EN" "http://www.w3.org/Graphics/SVG/1.1/DTD/svg11.dtd"><svg t="1492926877089" class="icon" style="" viewBox="0 0 1024 1024" version="1.1" xmlns="http://www.w3.org/2000/svg" p-id="7442" xmlns:xlink="http://www.w3.org/1999/xlink" width="200" height="200"><defs><style type="text/css"></style></defs><path d="M823.296 772.608c-17.92-17.92-17.92-41.472 0-59.392 114.688-113.152 114.688-291.328 0-404.48-17.92-17.92-17.92-41.472 0-59.392s42.496-17.92 60.416 0c72.192 71.68 114.688 160.768 114.688 256s-42.496 190.464-114.688 255.488c-6.144 6.144-17.92 11.776-30.208 11.776-12.288 12.288-24.064 6.144-30.208 0z m-120.832-65.024c-12.288 0-24.064-6.144-30.208-11.776-17.92-17.92-17.92-41.472 0-59.392 72.704-71.168 72.704-178.176 0-249.856-17.92-17.92-17.92-41.472 0-59.392s42.496-17.92 60.416 0c108.544 100.864 108.544 261.632 0 362.496-12.288 11.776-18.432 17.92-30.208 17.92zM478.72 94.72c54.272-41.472 96.768-17.92 96.768 47.616V885.76c0 65.536-42.496 83.456-90.624 41.472l-217.6-178.176H146.432c-66.56 0-120.832-53.76-120.832-118.784V386.048c0-65.536 54.272-118.784 120.832-118.784H261.12l217.6-172.544z" p-id="7443" fill="#cc3333"></path></svg>